<svg width="34" height="34" viewBox="0 0 34 34" fill="none" xmlns="http://www.w3.org/2000/svg">
<rect x="0.5" y="0.5" width="33" height="33" rx="4.5" stroke="black" stroke-opacity="0.5"/>
<path d="M13.516 17.142L16.54 22H14.748L12.55 18.472L10.492 22H8.714L11.738 17.142L8.7 12.27H10.492L12.704 15.826L14.776 12.27H16.554L13.516 17.142ZM21.4982 22.098C20.8449 22.098 20.2569 21.986 19.7342 21.762C19.2115 21.5287 18.8009 21.202 18.5022 20.782C18.2035 20.362 18.0542 19.872 18.0542 19.312H19.7622C19.7995 19.732 19.9629 20.0773 20.2522 20.348C20.5509 20.6187 20.9662 20.754 21.4982 20.754C22.0489 20.754 22.4782 20.6233 22.7862 20.362C23.0942 20.0913 23.2482 19.746 23.2482 19.326C23.2482 18.9993 23.1502 18.7333 22.9542 18.528C22.7675 18.3227 22.5295 18.164 22.2402 18.052C21.9602 17.94 21.5682 17.8187 21.0642 17.688C20.4295 17.52 19.9115 17.352 19.5102 17.184C19.1182 17.0067 18.7822 16.736 18.5022 16.372C18.2222 16.008 18.0822 15.5227 18.0822 14.916C18.0822 14.356 18.2222 13.866 18.5022 13.446C18.7822 13.026 19.1742 12.704 19.6782 12.48C20.1822 12.256 20.7655 12.144 21.4282 12.144C22.3709 12.144 23.1409 12.382 23.7382 12.858C24.3449 13.3247 24.6809 13.9687 24.7462 14.79H22.9822C22.9542 14.4353 22.7862 14.132 22.4782 13.88C22.1702 13.628 21.7642 13.502 21.2602 13.502C20.8029 13.502 20.4295 13.6187 20.1402 13.852C19.8509 14.0853 19.7062 14.4213 19.7062 14.86C19.7062 15.1587 19.7949 15.406 19.9722 15.602C20.1589 15.7887 20.3922 15.938 20.6722 16.05C20.9522 16.162 21.3349 16.2833 21.8202 16.414C22.4642 16.5913 22.9869 16.7687 23.3882 16.946C23.7989 17.1233 24.1442 17.3987 24.4242 17.772C24.7135 18.136 24.8582 18.626 24.8582 19.242C24.8582 19.7367 24.7229 20.2033 24.4522 20.642C24.1909 21.0807 23.8035 21.4353 23.2902 21.706C22.7862 21.9673 22.1889 22.098 21.4982 22.098Z" fill="black"/>
</svg>
