<svg width="34" height="34" viewBox="0 0 34 34" fill="none" xmlns="http://www.w3.org/2000/svg">
<rect x="0.5" y="0.5" width="33" height="33" rx="4.5" stroke="black" stroke-opacity="0.5"/>
<path d="M17.256 22.098C16.6027 22.098 16.0147 21.986 15.492 21.762C14.9693 21.5287 14.5587 21.202 14.26 20.782C13.9613 20.362 13.812 19.872 13.812 19.312H15.52C15.5573 19.732 15.7207 20.0773 16.01 20.348C16.3087 20.6187 16.724 20.754 17.256 20.754C17.8067 20.754 18.236 20.6233 18.544 20.362C18.852 20.0913 19.006 19.746 19.006 19.326C19.006 18.9993 18.908 18.7333 18.712 18.528C18.5253 18.3227 18.2873 18.164 17.998 18.052C17.718 17.94 17.326 17.8187 16.822 17.688C16.1873 17.52 15.6693 17.352 15.268 17.184C14.876 17.0067 14.54 16.736 14.26 16.372C13.98 16.008 13.84 15.5227 13.84 14.916C13.84 14.356 13.98 13.866 14.26 13.446C14.54 13.026 14.932 12.704 15.436 12.48C15.94 12.256 16.5233 12.144 17.186 12.144C18.1287 12.144 18.8987 12.382 19.496 12.858C20.1027 13.3247 20.4387 13.9687 20.504 14.79H18.74C18.712 14.4353 18.544 14.132 18.236 13.88C17.928 13.628 17.522 13.502 17.018 13.502C16.5607 13.502 16.1873 13.6187 15.898 13.852C15.6087 14.0853 15.464 14.4213 15.464 14.86C15.464 15.1587 15.5527 15.406 15.73 15.602C15.9167 15.7887 16.15 15.938 16.43 16.05C16.71 16.162 17.0927 16.2833 17.578 16.414C18.222 16.5913 18.7447 16.7687 19.146 16.946C19.5567 17.1233 19.902 17.3987 20.182 17.772C20.4713 18.136 20.616 18.626 20.616 19.242C20.616 19.7367 20.4807 20.2033 20.21 20.642C19.9487 21.0807 19.5613 21.4353 19.048 21.706C18.544 21.9673 17.9467 22.098 17.256 22.098Z" fill="black"/>
</svg>
